<?xml version="1.0" encoding="UTF-8" standalone="no"?>
<!DOCTYPE svg PUBLIC "-//W3C//DTD SVG 1.1//EN"
 "http://www.w3.org/Graphics/SVG/1.1/DTD/svg11.dtd">
<!-- Generated by graphviz version 2.40.1 (0)
 -->
<!-- Title: %3 Pages: 1 -->
<svg width="396pt" height="565pt"
 viewBox="0.00 0.00 396.00 565.24" xmlns="http://www.w3.org/2000/svg" xmlns:xlink="http://www.w3.org/1999/xlink">
<g id="graph0" class="graph" transform="scale(1 1) rotate(0) translate(4 561.2397)">
<title>%3</title>
<polygon fill="#ffffff" stroke="transparent" points="-4,4 -4,-561.2397 392,-561.2397 392,4 -4,4"/>
<!-- 0 -->
<g id="node1" class="node">
<title>0</title>
<ellipse fill="none" stroke="#000000" cx="199.5" cy="-507.0351" rx="182.3671" ry="50.41"/>
<polygon fill="none" stroke="#000000" points="78.5,-517.0351 78.5,-538.0351 320.5,-538.0351 320.5,-517.0351 78.5,-517.0351"/>
<text text-anchor="start" x="170" y="-523.8351" font-family="Times-Roman" font-size="14.00" fill="#000000">condition</text>
<polygon fill="none" stroke="#000000" points="78.5,-496.0351 78.5,-517.0351 320.5,-517.0351 320.5,-496.0351 78.5,-496.0351"/>
<text text-anchor="start" x="191.5" y="-502.8351" font-family="Times-Roman" font-size="14.00" fill="#000000">&lt;&gt;</text>
<polygon fill="none" stroke="#000000" points="78.5,-475.0351 78.5,-496.0351 320.5,-496.0351 320.5,-475.0351 78.5,-475.0351"/>
<text text-anchor="start" x="81.5" y="-481.8351" font-family="Times-Roman" font-size="14.00" fill="#000000">((0 &lt;= n) and ((m == l) and (n == k)))</text>
</g>
<!-- 1 -->
<g id="node2" class="node">
<title>1</title>
<ellipse fill="none" stroke="#000000" cx="199.5" cy="-370.6259" rx="61.5366" ry="50.41"/>
<polygon fill="none" stroke="#000000" points="164.5,-380.6259 164.5,-401.6259 235.5,-401.6259 235.5,-380.6259 164.5,-380.6259"/>
<text text-anchor="start" x="167.5" y="-387.4259" font-family="Times-Roman" font-size="14.00" fill="#000000">reduce (+)</text>
<polygon fill="none" stroke="#000000" points="164.5,-359.6259 164.5,-380.6259 235.5,-380.6259 235.5,-359.6259 164.5,-359.6259"/>
<text text-anchor="start" x="192" y="-366.4259" font-family="Times-Roman" font-size="14.00" fill="#000000">&lt;&gt;</text>
<polygon fill="none" stroke="#000000" points="164.5,-338.6259 164.5,-359.6259 235.5,-359.6259 235.5,-338.6259 164.5,-338.6259"/>
<text text-anchor="start" x="187" y="-345.4259" font-family="Times-Roman" font-size="14.00" fill="#000000">_i10</text>
</g>
<!-- 0&#45;&gt;1 -->
<g id="edge8" class="edge">
<title>0&#45;&gt;1</title>
<path fill="none" stroke="#000000" d="M199.5,-456.6289C199.5,-448.4276 199.5,-439.8571 199.5,-431.4386"/>
<polygon fill="#000000" stroke="#000000" points="203.0001,-431.2803 199.5,-421.2803 196.0001,-431.2804 203.0001,-431.2803"/>
</g>
<!-- 2 -->
<g id="node3" class="node">
<title>2</title>
<ellipse fill="none" stroke="#000000" cx="199.5" cy="-249.066" rx="27" ry="35.2113"/>
<polygon fill="none" stroke="#000000" points="188.5,-249.066 188.5,-270.066 210.5,-270.066 210.5,-249.066 188.5,-249.066"/>
<text text-anchor="start" x="195.5" y="-255.866" font-family="Times-Roman" font-size="14.00" fill="#000000">+</text>
<polygon fill="none" stroke="#000000" points="188.5,-228.066 188.5,-249.066 210.5,-249.066 210.5,-228.066 188.5,-228.066"/>
<text text-anchor="start" x="191.5" y="-234.866" font-family="Times-Roman" font-size="14.00" fill="#000000">&lt;&gt;</text>
</g>
<!-- 1&#45;&gt;2 -->
<g id="edge7" class="edge">
<title>1&#45;&gt;2</title>
<path fill="none" stroke="#000000" d="M199.5,-320.1296C199.5,-311.7821 199.5,-303.168 199.5,-294.942"/>
<polygon fill="#000000" stroke="#000000" points="203.0001,-294.7793 199.5,-284.7794 196.0001,-294.7794 203.0001,-294.7793"/>
</g>
<!-- 3 -->
<g id="node4" class="node">
<title>3</title>
<ellipse fill="none" stroke="#000000" cx="148.5" cy="-142.3553" rx="41.9398" ry="35.2113"/>
<polygon fill="none" stroke="#000000" points="127.5,-142.3553 127.5,-163.3553 170.5,-163.3553 170.5,-142.3553 127.5,-142.3553"/>
<text text-anchor="start" x="130.5" y="-149.1553" font-family="Times-Roman" font-size="14.00" fill="#000000">psi(Ψ)</text>
<polygon fill="none" stroke="#000000" points="127.5,-121.3553 127.5,-142.3553 170.5,-142.3553 170.5,-121.3553 127.5,-121.3553"/>
<text text-anchor="start" x="141" y="-128.1553" font-family="Times-Roman" font-size="14.00" fill="#000000">&lt;&gt;</text>
</g>
<!-- 2&#45;&gt;3 -->
<g id="edge3" class="edge">
<title>2&#45;&gt;3</title>
<path fill="none" stroke="#000000" d="M185.1579,-219.0572C179.997,-208.2587 174.0766,-195.8709 168.5204,-184.2453"/>
<polygon fill="#000000" stroke="#000000" points="171.6341,-182.6435 164.164,-175.1302 165.3183,-185.662 171.6341,-182.6435"/>
</g>
<!-- 6 -->
<g id="node7" class="node">
<title>6</title>
<ellipse fill="none" stroke="#000000" cx="250.5" cy="-142.3553" rx="41.9398" ry="35.2113"/>
<polygon fill="none" stroke="#000000" points="229.5,-142.3553 229.5,-163.3553 272.5,-163.3553 272.5,-142.3553 229.5,-142.3553"/>
<text text-anchor="start" x="232.5" y="-149.1553" font-family="Times-Roman" font-size="14.00" fill="#000000">psi(Ψ)</text>
<polygon fill="none" stroke="#000000" points="229.5,-121.3553 229.5,-142.3553 272.5,-142.3553 272.5,-121.3553 229.5,-121.3553"/>
<text text-anchor="start" x="243" y="-128.1553" font-family="Times-Roman" font-size="14.00" fill="#000000">&lt;&gt;</text>
</g>
<!-- 2&#45;&gt;6 -->
<g id="edge6" class="edge">
<title>2&#45;&gt;6</title>
<path fill="none" stroke="#000000" d="M213.8421,-219.0572C219.003,-208.2587 224.9234,-195.8709 230.4796,-184.2453"/>
<polygon fill="#000000" stroke="#000000" points="233.6817,-185.662 234.836,-175.1302 227.3659,-182.6435 233.6817,-185.662"/>
</g>
<!-- 4 -->
<g id="node5" class="node">
<title>4</title>
<polygon fill="none" stroke="#000000" points="93,-71 0,-71 0,0 93,0 93,-71"/>
<polygon fill="none" stroke="#000000" points="8.5,-45.5 8.5,-66.5 85.5,-66.5 85.5,-45.5 8.5,-45.5"/>
<text text-anchor="start" x="11.5" y="-52.3" font-family="Times-Roman" font-size="14.00" fill="#000000">Array _a12</text>
<polygon fill="none" stroke="#000000" points="8.5,-24.5 8.5,-45.5 85.5,-45.5 85.5,-24.5 8.5,-24.5"/>
<text text-anchor="start" x="35.5" y="-31.3" font-family="Times-Roman" font-size="14.00" fill="#000000">&lt;2&gt;</text>
<polygon fill="none" stroke="#000000" points="8.5,-3.5 8.5,-24.5 85.5,-24.5 85.5,-3.5 8.5,-3.5"/>
<text text-anchor="start" x="22.5" y="-10.3" font-family="Times-Roman" font-size="14.00" fill="#000000">(0 _i10)</text>
</g>
<!-- 3&#45;&gt;4 -->
<g id="edge1" class="edge">
<title>3&#45;&gt;4</title>
<path fill="none" stroke="#000000" d="M122.2325,-114.8374C111.7718,-103.8788 99.4794,-91.0013 87.8765,-78.8461"/>
<polygon fill="#000000" stroke="#000000" points="90.2004,-76.2116 80.7638,-71.3948 85.1369,-81.045 90.2004,-76.2116"/>
</g>
<!-- 5 -->
<g id="node6" class="node">
<title>5</title>
<polygon fill="none" stroke="#000000" points="185.5,-60.5 111.5,-60.5 111.5,-10.5 185.5,-10.5 185.5,-60.5"/>
<polygon fill="none" stroke="#000000" points="119.5,-35.5 119.5,-56.5 177.5,-56.5 177.5,-35.5 119.5,-35.5"/>
<text text-anchor="start" x="122.5" y="-42.3" font-family="Times-Roman" font-size="14.00" fill="#000000">Array A</text>
<polygon fill="none" stroke="#000000" points="119.5,-14.5 119.5,-35.5 177.5,-35.5 177.5,-14.5 119.5,-14.5"/>
<text text-anchor="start" x="128.5" y="-21.3" font-family="Times-Roman" font-size="14.00" fill="#000000">&lt;n m&gt;</text>
</g>
<!-- 3&#45;&gt;5 -->
<g id="edge2" class="edge">
<title>3&#45;&gt;5</title>
<path fill="none" stroke="#000000" d="M148.5,-106.7741C148.5,-95.2465 148.5,-82.4666 148.5,-70.9487"/>
<polygon fill="#000000" stroke="#000000" points="152.0001,-70.7978 148.5,-60.7978 145.0001,-70.7979 152.0001,-70.7978"/>
</g>
<!-- 7 -->
<g id="node8" class="node">
<title>7</title>
<polygon fill="none" stroke="#000000" points="297,-71 204,-71 204,0 297,0 297,-71"/>
<polygon fill="none" stroke="#000000" points="212.5,-45.5 212.5,-66.5 289.5,-66.5 289.5,-45.5 212.5,-45.5"/>
<text text-anchor="start" x="215.5" y="-52.3" font-family="Times-Roman" font-size="14.00" fill="#000000">Array _a12</text>
<polygon fill="none" stroke="#000000" points="212.5,-24.5 212.5,-45.5 289.5,-45.5 289.5,-24.5 212.5,-24.5"/>
<text text-anchor="start" x="239.5" y="-31.3" font-family="Times-Roman" font-size="14.00" fill="#000000">&lt;2&gt;</text>
<polygon fill="none" stroke="#000000" points="212.5,-3.5 212.5,-24.5 289.5,-24.5 289.5,-3.5 212.5,-3.5"/>
<text text-anchor="start" x="226.5" y="-10.3" font-family="Times-Roman" font-size="14.00" fill="#000000">(0 _i10)</text>
</g>
<!-- 6&#45;&gt;7 -->
<g id="edge4" class="edge">
<title>6&#45;&gt;7</title>
<path fill="none" stroke="#000000" d="M250.5,-106.7741C250.5,-98.6596 250.5,-89.9246 250.5,-81.4461"/>
<polygon fill="#000000" stroke="#000000" points="254.0001,-81.2902 250.5,-71.2902 247.0001,-81.2903 254.0001,-81.2902"/>
</g>
<!-- 8 -->
<g id="node9" class="node">
<title>8</title>
<polygon fill="none" stroke="#000000" points="388,-60.5 315,-60.5 315,-10.5 388,-10.5 388,-60.5"/>
<polygon fill="none" stroke="#000000" points="323.5,-35.5 323.5,-56.5 380.5,-56.5 380.5,-35.5 323.5,-35.5"/>
<text text-anchor="start" x="326.5" y="-42.3" font-family="Times-Roman" font-size="14.00" fill="#000000">Array B</text>
<polygon fill="none" stroke="#000000" points="323.5,-14.5 323.5,-35.5 380.5,-35.5 380.5,-14.5 323.5,-14.5"/>
<text text-anchor="start" x="336.5" y="-21.3" font-family="Times-Roman" font-size="14.00" fill="#000000">&lt;k l&gt;</text>
</g>
<!-- 6&#45;&gt;8 -->
<g id="edge5" class="edge">
<title>6&#45;&gt;8</title>
<path fill="none" stroke="#000000" d="M276.7729,-114.5593C290.2116,-100.3415 306.65,-82.9501 320.684,-68.1025"/>
<polygon fill="#000000" stroke="#000000" points="323.4495,-70.2719 327.7751,-60.6003 318.3624,-65.4635 323.4495,-70.2719"/>
</g>
</g>
</svg>
