<?xml version="1.0" encoding="UTF-8" standalone="no"?>
<!DOCTYPE svg PUBLIC "-//W3C//DTD SVG 1.1//EN"
 "http://www.w3.org/Graphics/SVG/1.1/DTD/svg11.dtd">
<!-- Generated by graphviz version 2.40.1 (0)
 -->
<!-- Title: %3 Pages: 1 -->
<svg width="248pt" height="381pt"
 viewBox="0.00 0.00 247.50 381.00" xmlns="http://www.w3.org/2000/svg" xmlns:xlink="http://www.w3.org/1999/xlink">
<g id="graph0" class="graph" transform="scale(1 1) rotate(0) translate(4 377)">
<title>%3</title>
<polygon fill="#ffffff" stroke="transparent" points="-4,4 -4,-377 243.5,-377 243.5,4 -4,4"/>
<!-- 0 -->
<g id="node1" class="node">
<title>0</title>
<ellipse fill="none" stroke="#000000" cx="100" cy="-355" rx="34.394" ry="18"/>
<text text-anchor="middle" x="100" y="-351.3" font-family="Times-Roman" font-size="14.00" fill="#000000">psi(Ψ)</text>
</g>
<!-- 1 -->
<g id="node2" class="node">
<title>1</title>
<polygon fill="none" stroke="#000000" points="86,-301 0,-301 0,-230 86,-230 86,-301"/>
<polygon fill="none" stroke="#000000" points="8,-275.5 8,-296.5 78,-296.5 78,-275.5 8,-275.5"/>
<text text-anchor="start" x="11" y="-282.3" font-family="Times-Roman" font-size="14.00" fill="#000000">Array _a6</text>
<polygon fill="none" stroke="#000000" points="8,-254.5 8,-275.5 78,-275.5 78,-254.5 8,-254.5"/>
<text text-anchor="start" x="31.5" y="-261.3" font-family="Times-Roman" font-size="14.00" fill="#000000">&lt;1&gt;</text>
<polygon fill="none" stroke="#000000" points="8,-233.5 8,-254.5 78,-254.5 78,-233.5 8,-233.5"/>
<text text-anchor="start" x="33.5" y="-240.3" font-family="Times-Roman" font-size="14.00" fill="#000000">(0)</text>
</g>
<!-- 0&#45;&gt;1 -->
<g id="edge1" class="edge">
<title>0&#45;&gt;1</title>
<path fill="none" stroke="#000000" d="M89.0098,-337.7435C83.9055,-329.7288 77.5777,-319.7931 71.2653,-309.8815"/>
<polygon fill="#000000" stroke="#000000" points="74.0771,-307.781 65.7532,-301.2264 68.1729,-311.5413 74.0771,-307.781"/>
</g>
<!-- 2 -->
<g id="node3" class="node">
<title>2</title>
<ellipse fill="none" stroke="#000000" cx="157" cy="-265.5" rx="52.7911" ry="18"/>
<text text-anchor="middle" x="157" y="-261.8" font-family="Times-Roman" font-size="14.00" fill="#000000">reduce (+)</text>
</g>
<!-- 0&#45;&gt;2 -->
<g id="edge6" class="edge">
<title>0&#45;&gt;2</title>
<path fill="none" stroke="#000000" d="M110.9902,-337.7435C119.2416,-324.7873 130.6902,-306.811 140.1027,-292.0317"/>
<polygon fill="#000000" stroke="#000000" points="143.2337,-293.6309 145.6534,-283.3161 137.3294,-289.8707 143.2337,-293.6309"/>
</g>
<!-- 3 -->
<g id="node4" class="node">
<title>3</title>
<ellipse fill="none" stroke="#000000" cx="157" cy="-176" rx="64.9885" ry="18"/>
<text text-anchor="middle" x="157" y="-172.3" font-family="Times-Roman" font-size="14.00" fill="#000000">transpose(Ø)</text>
</g>
<!-- 2&#45;&gt;3 -->
<g id="edge5" class="edge">
<title>2&#45;&gt;3</title>
<path fill="none" stroke="#000000" d="M157,-247.3883C157,-235.0146 157,-218.3686 157,-204.2632"/>
<polygon fill="#000000" stroke="#000000" points="160.5001,-204.0847 157,-194.0847 153.5001,-204.0848 160.5001,-204.0847"/>
</g>
<!-- 4 -->
<g id="node5" class="node">
<title>4</title>
<ellipse fill="none" stroke="#000000" cx="157" cy="-104" rx="27" ry="18"/>
<text text-anchor="middle" x="157" y="-100.3" font-family="Times-Roman" font-size="14.00" fill="#000000">+</text>
</g>
<!-- 3&#45;&gt;4 -->
<g id="edge4" class="edge">
<title>3&#45;&gt;4</title>
<path fill="none" stroke="#000000" d="M157,-157.8314C157,-150.131 157,-140.9743 157,-132.4166"/>
<polygon fill="#000000" stroke="#000000" points="160.5001,-132.4132 157,-122.4133 153.5001,-132.4133 160.5001,-132.4132"/>
</g>
<!-- 5 -->
<g id="node6" class="node">
<title>5</title>
<polygon fill="none" stroke="#000000" points="148,-50 74,-50 74,0 148,0 148,-50"/>
<polygon fill="none" stroke="#000000" points="82,-25 82,-46 140,-46 140,-25 82,-25"/>
<text text-anchor="start" x="85" y="-31.8" font-family="Times-Roman" font-size="14.00" fill="#000000">Array A</text>
<polygon fill="none" stroke="#000000" points="82,-4 82,-25 140,-25 140,-4 82,-4"/>
<text text-anchor="start" x="91" y="-10.8" font-family="Times-Roman" font-size="14.00" fill="#000000">&lt;n m&gt;</text>
</g>
<!-- 4&#45;&gt;5 -->
<g id="edge2" class="edge">
<title>4&#45;&gt;5</title>
<path fill="none" stroke="#000000" d="M147.0187,-86.8582C142.2442,-78.6586 136.3538,-68.5424 130.7297,-58.8836"/>
<polygon fill="#000000" stroke="#000000" points="133.7358,-57.0905 125.6792,-50.2099 127.6865,-60.6129 133.7358,-57.0905"/>
</g>
<!-- 6 -->
<g id="node7" class="node">
<title>6</title>
<polygon fill="none" stroke="#000000" points="239.5,-50 166.5,-50 166.5,0 239.5,0 239.5,-50"/>
<polygon fill="none" stroke="#000000" points="175,-25 175,-46 232,-46 232,-25 175,-25"/>
<text text-anchor="start" x="178" y="-31.8" font-family="Times-Roman" font-size="14.00" fill="#000000">Array B</text>
<polygon fill="none" stroke="#000000" points="175,-4 175,-25 232,-25 232,-4 175,-4"/>
<text text-anchor="start" x="188" y="-10.8" font-family="Times-Roman" font-size="14.00" fill="#000000">&lt;k l&gt;</text>
</g>
<!-- 4&#45;&gt;6 -->
<g id="edge3" class="edge">
<title>4&#45;&gt;6</title>
<path fill="none" stroke="#000000" d="M166.9813,-86.8582C171.7558,-78.6586 177.6462,-68.5424 183.2703,-58.8836"/>
<polygon fill="#000000" stroke="#000000" points="186.3135,-60.6129 188.3208,-50.2099 180.2642,-57.0905 186.3135,-60.6129"/>
</g>
</g>
</svg>
