<?xml version="1.0" encoding="UTF-8" standalone="no"?>
<!DOCTYPE svg PUBLIC "-//W3C//DTD SVG 1.1//EN"
 "http://www.w3.org/Graphics/SVG/1.1/DTD/svg11.dtd">
<!-- Generated by graphviz version 2.40.1 (0)
 -->
<!-- Title: %3 Pages: 1 -->
<svg width="373pt" height="622pt"
 viewBox="0.00 0.00 372.87 621.54" xmlns="http://www.w3.org/2000/svg" xmlns:xlink="http://www.w3.org/1999/xlink">
<g id="graph0" class="graph" transform="scale(1 1) rotate(0) translate(4 617.5412)">
<title>%3</title>
<polygon fill="#ffffff" stroke="transparent" points="-4,4 -4,-617.5412 368.8671,-617.5412 368.8671,4 -4,4"/>
<!-- 0 -->
<g id="node1" class="node">
<title>0</title>
<ellipse fill="none" stroke="#000000" cx="182.4335" cy="-563.3366" rx="182.3671" ry="50.41"/>
<polygon fill="none" stroke="#000000" points="61.4335,-573.3366 61.4335,-594.3366 303.4335,-594.3366 303.4335,-573.3366 61.4335,-573.3366"/>
<text text-anchor="start" x="152.9335" y="-580.1366" font-family="Times-Roman" font-size="14.00" fill="#000000">condition</text>
<polygon fill="none" stroke="#000000" points="61.4335,-552.3366 61.4335,-573.3366 303.4335,-573.3366 303.4335,-552.3366 61.4335,-552.3366"/>
<text text-anchor="start" x="174.4335" y="-559.1366" font-family="Times-Roman" font-size="14.00" fill="#000000">&lt;&gt;</text>
<polygon fill="none" stroke="#000000" points="61.4335,-531.3366 61.4335,-552.3366 303.4335,-552.3366 303.4335,-531.3366 61.4335,-531.3366"/>
<text text-anchor="start" x="64.4335" y="-538.1366" font-family="Times-Roman" font-size="14.00" fill="#000000">((0 &lt;= n) and ((m == l) and (n == k)))</text>
</g>
<!-- 1 -->
<g id="node2" class="node">
<title>1</title>
<ellipse fill="none" stroke="#000000" cx="182.4335" cy="-441.7767" rx="41.9398" ry="35.2113"/>
<polygon fill="none" stroke="#000000" points="161.4335,-441.7767 161.4335,-462.7767 204.4335,-462.7767 204.4335,-441.7767 161.4335,-441.7767"/>
<text text-anchor="start" x="164.4335" y="-448.5767" font-family="Times-Roman" font-size="14.00" fill="#000000">psi(Ψ)</text>
<polygon fill="none" stroke="#000000" points="161.4335,-420.7767 161.4335,-441.7767 204.4335,-441.7767 204.4335,-420.7767 161.4335,-420.7767"/>
<text text-anchor="start" x="174.9335" y="-427.5767" font-family="Times-Roman" font-size="14.00" fill="#000000">&lt;&gt;</text>
</g>
<!-- 0&#45;&gt;1 -->
<g id="edge7" class="edge">
<title>0&#45;&gt;1</title>
<path fill="none" stroke="#000000" d="M182.4335,-512.8403C182.4335,-504.4928 182.4335,-495.8786 182.4335,-487.6527"/>
<polygon fill="#000000" stroke="#000000" points="185.9336,-487.49 182.4335,-477.49 178.9336,-487.4901 185.9336,-487.49"/>
</g>
<!-- 2 -->
<g id="node3" class="node">
<title>2</title>
<polygon fill="none" stroke="#000000" points="164.4335,-370.4214 78.4335,-370.4214 78.4335,-299.4214 164.4335,-299.4214 164.4335,-370.4214"/>
<polygon fill="none" stroke="#000000" points="86.4335,-344.9214 86.4335,-365.9214 156.4335,-365.9214 156.4335,-344.9214 86.4335,-344.9214"/>
<text text-anchor="start" x="89.4335" y="-351.7214" font-family="Times-Roman" font-size="14.00" fill="#000000">Array _a6</text>
<polygon fill="none" stroke="#000000" points="86.4335,-323.9214 86.4335,-344.9214 156.4335,-344.9214 156.4335,-323.9214 86.4335,-323.9214"/>
<text text-anchor="start" x="109.9335" y="-330.7214" font-family="Times-Roman" font-size="14.00" fill="#000000">&lt;1&gt;</text>
<polygon fill="none" stroke="#000000" points="86.4335,-302.9214 86.4335,-323.9214 156.4335,-323.9214 156.4335,-302.9214 86.4335,-302.9214"/>
<text text-anchor="start" x="111.9335" y="-309.7214" font-family="Times-Roman" font-size="14.00" fill="#000000">(0)</text>
</g>
<!-- 1&#45;&gt;2 -->
<g id="edge1" class="edge">
<title>1&#45;&gt;2</title>
<path fill="none" stroke="#000000" d="M164.1315,-409.7166C158.703,-400.2072 152.6572,-389.6167 146.8627,-379.4662"/>
<polygon fill="#000000" stroke="#000000" points="149.8543,-377.647 141.857,-370.6977 143.7752,-381.1174 149.8543,-377.647"/>
</g>
<!-- 3 -->
<g id="node4" class="node">
<title>3</title>
<ellipse fill="none" stroke="#000000" cx="244.4335" cy="-334.9214" rx="61.5366" ry="35.2113"/>
<polygon fill="none" stroke="#000000" points="209.4335,-334.9214 209.4335,-355.9214 280.4335,-355.9214 280.4335,-334.9214 209.4335,-334.9214"/>
<text text-anchor="start" x="212.4335" y="-341.7214" font-family="Times-Roman" font-size="14.00" fill="#000000">reduce (+)</text>
<polygon fill="none" stroke="#000000" points="209.4335,-313.9214 209.4335,-334.9214 280.4335,-334.9214 280.4335,-313.9214 209.4335,-313.9214"/>
<text text-anchor="start" x="232.9335" y="-320.7214" font-family="Times-Roman" font-size="14.00" fill="#000000">&lt;n&gt;</text>
</g>
<!-- 1&#45;&gt;3 -->
<g id="edge6" class="edge">
<title>1&#45;&gt;3</title>
<path fill="none" stroke="#000000" d="M200.8677,-410.0059C206.7797,-399.8167 213.4257,-388.3625 219.7121,-377.528"/>
<polygon fill="#000000" stroke="#000000" points="222.8928,-379.0202 224.8842,-368.6142 216.8382,-375.5071 222.8928,-379.0202"/>
</g>
<!-- 4 -->
<g id="node5" class="node">
<title>4</title>
<ellipse fill="none" stroke="#000000" cx="244.4335" cy="-228.066" rx="74.9067" ry="35.2113"/>
<polygon fill="none" stroke="#000000" points="199.4335,-228.066 199.4335,-249.066 289.4335,-249.066 289.4335,-228.066 199.4335,-228.066"/>
<text text-anchor="start" x="202.4335" y="-234.866" font-family="Times-Roman" font-size="14.00" fill="#000000">transpose(Ø)</text>
<polygon fill="none" stroke="#000000" points="199.4335,-207.066 199.4335,-228.066 289.4335,-228.066 289.4335,-207.066 199.4335,-207.066"/>
<text text-anchor="start" x="224.4335" y="-213.866" font-family="Times-Roman" font-size="14.00" fill="#000000">&lt;m n&gt;</text>
</g>
<!-- 3&#45;&gt;4 -->
<g id="edge5" class="edge">
<title>3&#45;&gt;4</title>
<path fill="none" stroke="#000000" d="M244.4335,-299.3401C244.4335,-291.1393 244.4335,-282.3047 244.4335,-273.7416"/>
<polygon fill="#000000" stroke="#000000" points="247.9336,-273.4919 244.4335,-263.4919 240.9336,-273.492 247.9336,-273.4919"/>
</g>
<!-- 5 -->
<g id="node6" class="node">
<title>5</title>
<ellipse fill="none" stroke="#000000" cx="244.4335" cy="-121.3553" rx="43.6818" ry="35.2113"/>
<polygon fill="none" stroke="#000000" points="221.4335,-121.3553 221.4335,-142.3553 267.4335,-142.3553 267.4335,-121.3553 221.4335,-121.3553"/>
<text text-anchor="start" x="240.4335" y="-128.1553" font-family="Times-Roman" font-size="14.00" fill="#000000">+</text>
<polygon fill="none" stroke="#000000" points="221.4335,-100.3553 221.4335,-121.3553 267.4335,-121.3553 267.4335,-100.3553 221.4335,-100.3553"/>
<text text-anchor="start" x="224.4335" y="-107.1553" font-family="Times-Roman" font-size="14.00" fill="#000000">&lt;n m&gt;</text>
</g>
<!-- 4&#45;&gt;5 -->
<g id="edge4" class="edge">
<title>4&#45;&gt;5</title>
<path fill="none" stroke="#000000" d="M244.4335,-192.5329C244.4335,-184.3432 244.4335,-175.5206 244.4335,-166.9691"/>
<polygon fill="#000000" stroke="#000000" points="247.9336,-166.7332 244.4335,-156.7333 240.9336,-166.7333 247.9336,-166.7332"/>
</g>
<!-- 6 -->
<g id="node7" class="node">
<title>6</title>
<polygon fill="none" stroke="#000000" points="235.4335,-50 161.4335,-50 161.4335,0 235.4335,0 235.4335,-50"/>
<polygon fill="none" stroke="#000000" points="169.4335,-25 169.4335,-46 227.4335,-46 227.4335,-25 169.4335,-25"/>
<text text-anchor="start" x="172.4335" y="-31.8" font-family="Times-Roman" font-size="14.00" fill="#000000">Array A</text>
<polygon fill="none" stroke="#000000" points="169.4335,-4 169.4335,-25 227.4335,-25 227.4335,-4 169.4335,-4"/>
<text text-anchor="start" x="178.4335" y="-10.8" font-family="Times-Roman" font-size="14.00" fill="#000000">&lt;n m&gt;</text>
</g>
<!-- 5&#45;&gt;6 -->
<g id="edge2" class="edge">
<title>5&#45;&gt;6</title>
<path fill="none" stroke="#000000" d="M228.603,-88.1953C224.1589,-78.8864 219.3181,-68.7464 214.8412,-59.3689"/>
<polygon fill="#000000" stroke="#000000" points="217.9807,-57.8209 210.5139,-50.3044 211.6636,-60.8367 217.9807,-57.8209"/>
</g>
<!-- 7 -->
<g id="node8" class="node">
<title>7</title>
<polygon fill="none" stroke="#000000" points="326.9335,-50 253.9335,-50 253.9335,0 326.9335,0 326.9335,-50"/>
<polygon fill="none" stroke="#000000" points="262.4335,-25 262.4335,-46 319.4335,-46 319.4335,-25 262.4335,-25"/>
<text text-anchor="start" x="265.4335" y="-31.8" font-family="Times-Roman" font-size="14.00" fill="#000000">Array B</text>
<polygon fill="none" stroke="#000000" points="262.4335,-4 262.4335,-25 319.4335,-25 319.4335,-4 262.4335,-4"/>
<text text-anchor="start" x="275.4335" y="-10.8" font-family="Times-Roman" font-size="14.00" fill="#000000">&lt;k l&gt;</text>
</g>
<!-- 5&#45;&gt;7 -->
<g id="edge3" class="edge">
<title>5&#45;&gt;7</title>
<path fill="none" stroke="#000000" d="M260.2641,-88.1953C264.7082,-78.8864 269.549,-68.7464 274.0259,-59.3689"/>
<polygon fill="#000000" stroke="#000000" points="277.2035,-60.8367 278.3532,-50.3044 270.8864,-57.8209 277.2035,-60.8367"/>
</g>
</g>
</svg>
